# xmcd CD database file
#
# Track frame offsets:
#	150
#	35535
#	66637
#	92110
#	118320
#	144492
#	172865
#	198630
#
# Disc length: 2995 seconds
#
# Revision: 8
# Processed by: cddbd v1.5.1PL0 Copyright (c) Steve Scherf et al.
# Submitted via: CDex 1.51
#
DISCID=780bb108
DTITLE=George Benson and Earl Klugh - Collaboration
DYEAR=1987
DGENRE=Jazz
TTITLE0=Mt. Airy Road
TTITLE1=Mimosa
TTITLE2=Brazilian Stomp
TTITLE3=Dreamin'
TTITLE4=Since You're Gone
TTITLE5=Collaboration
TTITLE6=Jamaica
TTITLE7=Love Theme From "Romeo and Juliet"
EXTD=YEAR: 1987
EXTT0=
EXTT1=
EXTT2=
EXTT3=
EXTT4=
EXTT5=
EXTT6=
EXTT7=
PLAYORDER=
